<svg xmlns="http://www.w3.org/2000/svg" viewBox="0 0 123.02 240.57"><defs><style>.cls-1{fill:#f23869;}.cls-1,.cls-2,.cls-3,.cls-4{stroke:#000;}.cls-1,.cls-2,.cls-3,.cls-4,.cls-5,.cls-6{stroke-miterlimit:10;}.cls-1,.cls-2{stroke-width:2px;}.cls-2{fill:#17a8dd;}.cls-3,.cls-4,.cls-5,.cls-6{fill:none;}.cls-3{stroke-width:5px;}.cls-4{stroke-width:7px;}.cls-5,.cls-6{stroke:#f23869;}.cls-5{stroke-width:4px;}.cls-6{stroke-width:3px;}</style></defs><g id="Layer_2" data-name="Layer 2"><g id="Layer_1-2" data-name="Layer 1"><path class="cls-1" d="M103.17,18H98.55v16a7,7,0,0,1-7,7h-60a7,7,0,0,1-7-7V18H19.86A18.92,18.92,0,0,0,1,36.89V220.72a18.91,18.91,0,0,0,18.86,18.85h83.31A18.9,18.9,0,0,0,122,220.72V36.89A18.91,18.91,0,0,0,103.17,18ZM88.69,58.14A13.64,13.64,0,1,1,75.05,71.77,13.63,13.63,0,0,1,88.69,58.14Zm-16.93,45L95,126.3a14.49,14.49,0,0,1,0,20.42l-23.2,23.2a14.49,14.49,0,0,1-20.42,0l-23.2-23.2a14.47,14.47,0,0,1,0-20.42l23.2-23.2A14.47,14.47,0,0,1,71.76,103.1ZM34.41,57.65A13.64,13.64,0,1,1,20.78,71.28,13.64,13.64,0,0,1,34.41,57.65Zm-10.35,163a13.5,13.5,0,1,1,13.5-13.5A13.49,13.49,0,0,1,24.06,220.61Zm37.49,0a13.5,13.5,0,1,1,13.5-13.5A13.49,13.49,0,0,1,61.55,220.61Zm37,0a13.5,13.5,0,1,1,13.5-13.5A13.49,13.49,0,0,1,98.55,220.61Z"/><path class="cls-2" d="M34.48,1H88.62a3,3,0,0,1,3,3V28.06a7,7,0,0,1-7,7H38.48a7,7,0,0,1-7-7V4A3,3,0,0,1,34.48,1Z"/><path class="cls-3" d="M72.25,136h11.2m-5.71-5.6v11.2"/><path class="cls-3" d="M38.33,136h13"/><path class="cls-4" d="M44.47,123.53c-8.77-.7-16.14,9.68-12.55,17.71,3.51,8.7,16.7,11.06,23,4.09,6.08-6,8.42-15.12,15.86-19.83,7.56-5.16,19.74-.28,21.21,8.89,1.44,8.79-8,17.34-16.6,14.76-6.33-1.43-10.88-6.84-13.46-12.54-3.19-5.44-7.34-11.25-13.84-12.73a16,16,0,0,0-3.52-.36Z"/><path class="cls-5" d="M44.47,123.53c-8.77-.7-16.14,9.68-12.55,17.71,3.51,8.7,16.7,11.06,23,4.09,6.08-6,8.42-15.12,15.86-19.83,7.56-5.16,19.74-.28,21.21,8.89,1.44,8.79-8,17.34-16.6,14.76-6.33-1.43-10.88-6.84-13.46-12.54-3.19-5.44-7.34-11.25-13.84-12.73a16,16,0,0,0-3.52-.36Z"/><path class="cls-6" d="M39.3,136H50.37"/><path class="cls-6" d="M73.24,136h9.22m-4.7-4.61v9.22"/></g></g></svg>