<svg xmlns="http://www.w3.org/2000/svg" viewBox="0 0 122.02 239.57"><defs><style>.cls-1{fill:#f23869;}.cls-1,.cls-2{stroke:#000;stroke-miterlimit:10;}.cls-2{fill:#17a8dd;}</style></defs><g id="Layer_2" data-name="Layer 2"><g id="Layer_1-2" data-name="Layer 1"><path class="cls-1" d="M102.67,17.53H98.05v16a7,7,0,0,1-7,7h-60a7,7,0,0,1-7-7v-16H19.36A18.92,18.92,0,0,0,.5,36.39V220.22a18.91,18.91,0,0,0,18.86,18.85h83.31a18.9,18.9,0,0,0,18.85-18.85V36.39A18.91,18.91,0,0,0,102.67,17.53ZM88.19,57.64A13.64,13.64,0,1,1,74.55,71.27,13.63,13.63,0,0,1,88.19,57.64Zm-16.93,45,23.2,23.2a14.49,14.49,0,0,1,0,20.42l-23.2,23.2a14.49,14.49,0,0,1-20.42,0l-23.2-23.2a14.47,14.47,0,0,1,0-20.42l23.2-23.2A14.47,14.47,0,0,1,71.26,102.6ZM33.91,57.15A13.64,13.64,0,1,1,20.28,70.78,13.64,13.64,0,0,1,33.91,57.15Zm-10.35,163a13.5,13.5,0,1,1,13.5-13.5A13.49,13.49,0,0,1,23.56,220.11Zm37.49,0a13.5,13.5,0,1,1,13.5-13.5A13.49,13.49,0,0,1,61.05,220.11Zm37,0a13.5,13.5,0,1,1,13.5-13.5A13.49,13.49,0,0,1,98.05,220.11Z"/><path class="cls-2" d="M34,.5H88.12a3,3,0,0,1,3,3V27.56a7,7,0,0,1-7,7H38a7,7,0,0,1-7-7V3.5A3,3,0,0,1,34,.5Z"/></g></g></svg>