<svg xmlns="http://www.w3.org/2000/svg" viewBox="0 0 94.96 65.8"><defs><style>.cls-1{fill:#f23869;}</style></defs><g id="Layer_2" data-name="Layer 2"><g id="Layer_1-2" data-name="Layer 1"><path class="cls-1" d="M32.9,58.6A25.7,25.7,0,1,1,56.2,22.3l5.7-4.6A32.64,32.64,0,0,0,32.9,0,32.9,32.9,0,1,0,65.5,37.2l-8.3,4.3A25.8,25.8,0,0,1,32.9,58.6Z"/><path class="cls-1" d="M46,30.6l5.3-4.3a19.52,19.52,0,1,0-3.4,19.1A7.16,7.16,0,0,1,42,42.6a13,13,0,0,1-9.1,3.6A13.3,13.3,0,1,1,46,30.6Z"/><path class="cls-1" d="M26.7,32.9a6.2,6.2,0,1,0,6.2-6.2A6.23,6.23,0,0,0,26.7,32.9Z"/><path class="cls-1" d="M93.8,16.3l-9.2-1.9,1.9-9.2a1.53,1.53,0,0,0-2.3-1.6l-10.7,7a3.94,3.94,0,0,0-1.7,2.5l-1.3,6L45.6,36.5a2.64,2.64,0,0,0,2.9,4.4L74.6,25.3l6,1.3a4.12,4.12,0,0,0,2.9-.5l10.7-7A1.52,1.52,0,0,0,93.8,16.3Z"/></g></g></svg>