<svg xmlns="http://www.w3.org/2000/svg" viewBox="0 0 613.74 785.8"><defs><style>.cls-1{fill:#f1f2f2;stroke:#fff;stroke-miterlimit:10;stroke-width:15px;}</style></defs><g id="Layer_2" data-name="Layer 2"><g id="Graphic_element" data-name="Graphic element"><path class="cls-1" d="M570.49,148.61,342.62,17.05a71.71,71.71,0,0,0-71.5,0L43.25,148.61A71.7,71.7,0,0,0,7.5,210.53V468.08a81.38,81.38,0,0,0,40.58,70.28l.17.1,206.27,89.12,2.78-6.43L51.4,532.2a74.36,74.36,0,0,1-36.9-64.12V210.53a64.69,64.69,0,0,1,32.25-55.86L274.62,23.11a64.7,64.7,0,0,1,64.5,0L567,154.67a64.69,64.69,0,0,1,32.25,55.86V468.08a74.37,74.37,0,0,1-36.91,64.12L358.4,620.31l2.77,6.43,204.13-88.2.36-.18a81.38,81.38,0,0,0,40.58-70.28V210.53A71.7,71.7,0,0,0,570.49,148.61Z"/><path class="cls-1" d="M474.71,416.13a30.21,30.21,0,1,0-30.21-30.21A30,30,0,0,0,446,395.2L303.37,454V778.3h7V458.65l138.51-57.08A30.23,30.23,0,0,0,474.71,416.13Zm0-53.42a23.21,23.21,0,1,1-23.21,23.21A23.24,23.24,0,0,1,474.71,362.71Z"/><path class="cls-1" d="M148.21,299.42A30.21,30.21,0,1,0,174.76,344L309.2,397.7V218.85a30.21,30.21,0,1,0-7,0V387.37L177.36,337.54a29.9,29.9,0,0,0,1.06-7.91A30.24,30.24,0,0,0,148.21,299.42ZM282.49,188.85a23.21,23.21,0,1,1,23.21,23.21A23.23,23.23,0,0,1,282.49,188.85Zm-134.28,164a23.21,23.21,0,1,1,23.21-23.2A23.23,23.23,0,0,1,148.21,352.83Z"/></g></g></svg>