<?xml version="1.0" encoding="utf-8"?>
<!-- Generator: Adobe Illustrator 24.1.3, SVG Export Plug-In . SVG Version: 6.00 Build 0)  -->
<svg version="1.1" id="Layer_1" xmlns="http://www.w3.org/2000/svg" xmlns:xlink="http://www.w3.org/1999/xlink" x="0px" y="0px"
	 viewBox="0 0 1536 656" style="enable-background:new 0 0 1536 656;" xml:space="preserve">
<style type="text/css">
	.st0{opacity:0.85;fill:#F23869;stroke:#000000;stroke-width:0.5818;stroke-miterlimit:5.6765;enable-background:new    ;}
	.st1{opacity:0.85;fill:#3717BF;stroke:#000000;stroke-width:0.5818;stroke-miterlimit:5.6765;enable-background:new    ;}
	.st2{fill-opacity:0;stroke:#000000;stroke-width:0.5818;stroke-miterlimit:5.6765;stroke-opacity:0.85;}
	.st3{fill:none;stroke:#000000;stroke-miterlimit:5.6765;stroke-opacity:0.85;}
	.st4{fill:none;stroke:#000000;stroke-width:0.2909;stroke-miterlimit:5.6765;stroke-opacity:0.85;}
	.st5{font-family:'HelveticaNeueLight';}
	.st6{font-size:22.706px;}
</style>
<g transform="translate(-271.7713374357172,-283.79821102195194) scale(1.4191233562003882)">
	<rect id="_x30__x5F_0" x="562" y="257.5" class="st0" width="10" height="256"/>
	<rect id="_x31__x5F_0" x="649" y="276.5" class="st0" width="10" height="48"/>
	<rect id="_x31__x5F_1" x="652" y="279.5" class="st1" width="10" height="48"/>
	<rect id="_x31__x5F_2" x="655" y="282.5" class="st0" width="10" height="48"/>
	<rect id="_x31__x5F_3" x="658" y="285.5" class="st1" width="10" height="48"/>
	<rect id="_x31__x5F_4" x="661" y="288.5" class="st0" width="10" height="48"/>
	<rect id="_x31__x5F_5" x="664" y="291.5" class="st1" width="10" height="48"/>
	<rect id="_x31__x5F_6" x="667" y="294.5" class="st0" width="10" height="48"/>
	<rect id="_x31__x5F_7" x="670" y="297.5" class="st1" width="10" height="48"/>
	<rect id="_x31__x5F_8" x="673" y="300.5" class="st0" width="10" height="48"/>
	<rect id="_x31__x5F_9" x="676" y="303.5" class="st1" width="10" height="48"/>
	<rect id="_x31__x5F_10" x="679" y="306.5" class="st0" width="10" height="48"/>
	<rect id="_x31__x5F_11" x="682" y="309.5" class="st1" width="10" height="48"/>
	<rect id="_x31__x5F_12" x="685" y="312.5" class="st0" width="10" height="48"/>
	<rect id="_x31__x5F_13" x="688" y="315.5" class="st1" width="10" height="48"/>
	<rect id="_x31__x5F_14" x="691" y="318.5" class="st0" width="10" height="48"/>
	<rect id="_x31__x5F_15" x="694" y="321.5" class="st1" width="10" height="48"/>
	<rect id="_x31__x5F_16" x="697" y="324.5" class="st0" width="10" height="48"/>
	<rect id="_x31__x5F_17" x="700" y="327.5" class="st1" width="10" height="48"/>
	<rect id="_x31__x5F_18" x="703" y="330.5" class="st0" width="10" height="48"/>
	<rect id="_x31__x5F_19" x="706" y="333.5" class="st1" width="10" height="48"/>
	<rect id="_x31__x5F_20" x="709" y="336.5" class="st0" width="10" height="48"/>
	<rect id="_x31__x5F_21" x="712" y="339.5" class="st1" width="10" height="48"/>
	<rect id="_x31__x5F_22" x="715" y="342.5" class="st0" width="10" height="48"/>
	<rect id="_x31__x5F_23" x="718" y="345.5" class="st1" width="10" height="48"/>
	<rect id="_x31__x5F_24" x="721" y="348.5" class="st0" width="10" height="48"/>
	<rect id="_x31__x5F_25" x="724" y="351.5" class="st1" width="10" height="48"/>
	<rect id="_x31__x5F_26" x="727" y="354.5" class="st0" width="10" height="48"/>
	<rect id="_x31__x5F_27" x="730" y="357.5" class="st1" width="10" height="48"/>
	<rect id="_x31__x5F_28" x="733" y="360.5" class="st0" width="10" height="48"/>
	<rect id="_x31__x5F_29" x="736" y="363.5" class="st1" width="10" height="48"/>
	<rect id="_x31__x5F_30" x="739" y="366.5" class="st0" width="10" height="48"/>
	<rect id="_x31__x5F_31" x="742" y="369.5" class="st1" width="10" height="48"/>
	<rect id="_x32__x5F_0" x="766" y="303" class="st0" width="5" height="20"/>
	<rect id="_x32__x5F_1" x="769" y="306" class="st1" width="5" height="20"/>
	<rect id="_x32__x5F_2" x="772" y="309" class="st0" width="5" height="20"/>
	<rect id="_x32__x5F_3" x="775" y="312" class="st1" width="5" height="20"/>
	<rect id="_x32__x5F_4" x="778" y="315" class="st0" width="5" height="20"/>
	<rect id="_x32__x5F_5" x="781" y="318" class="st1" width="5" height="20"/>
	<rect id="_x32__x5F_6" x="784" y="321" class="st0" width="5" height="20"/>
	<rect id="_x32__x5F_7" x="787" y="324" class="st1" width="5" height="20"/>
	<rect id="_x32__x5F_8" x="790" y="327" class="st0" width="5" height="20"/>
	<rect id="_x32__x5F_9" x="793" y="330" class="st1" width="5" height="20"/>
	<rect id="_x32__x5F_10" x="796" y="333" class="st0" width="5" height="20"/>
	<rect id="_x32__x5F_11" x="799" y="336" class="st1" width="5" height="20"/>
	<rect id="_x32__x5F_12" x="802" y="339" class="st0" width="5" height="20"/>
	<rect id="_x32__x5F_13" x="805" y="342" class="st1" width="5" height="20"/>
	<rect id="_x32__x5F_14" x="808" y="345" class="st0" width="5" height="20"/>
	<rect id="_x32__x5F_15" x="811" y="348" class="st1" width="5" height="20"/>
	<rect id="_x33__x5F_0" x="857" y="280" class="st0" width="3" height="8"/>
	<rect id="_x33__x5F_1" x="860" y="283" class="st1" width="3" height="8"/>
	<rect id="_x33__x5F_2" x="863" y="286" class="st0" width="3" height="8"/>
	<rect id="_x33__x5F_3" x="866" y="289" class="st1" width="3" height="8"/>
	<rect id="_x33__x5F_4" x="869" y="292" class="st0" width="3" height="8"/>
	<rect id="_x33__x5F_5" x="872" y="295" class="st1" width="3" height="8"/>
	<rect id="_x33__x5F_6" x="875" y="298" class="st0" width="3" height="8"/>
	<rect id="_x33__x5F_7" x="878" y="301" class="st1" width="3" height="8"/>
	<rect id="_x33__x5F_8" x="881" y="304" class="st0" width="3" height="8"/>
	<rect id="_x33__x5F_9" x="884" y="307" class="st1" width="3" height="8"/>
	<rect id="_x33__x5F_10" x="887" y="310" class="st0" width="3" height="8"/>
	<rect id="_x33__x5F_11" x="890" y="313" class="st1" width="3" height="8"/>
	<rect id="_x33__x5F_12" x="893" y="316" class="st0" width="3" height="8"/>
	<rect id="_x33__x5F_13" x="896" y="319" class="st1" width="3" height="8"/>
	<rect id="_x33__x5F_14" x="899" y="322" class="st0" width="3" height="8"/>
	<rect id="_x33__x5F_15" x="902" y="325" class="st1" width="3" height="8"/>
	<rect id="_x33__x5F_16" x="905" y="328" class="st0" width="3" height="8"/>
	<rect id="_x33__x5F_17" x="908" y="331" class="st1" width="3" height="8"/>
	<rect id="_x33__x5F_18" x="911" y="334" class="st0" width="3" height="8"/>
	<rect id="_x33__x5F_19" x="914" y="337" class="st1" width="3" height="8"/>
	<rect id="_x33__x5F_20" x="917" y="340" class="st0" width="3" height="8"/>
	<rect id="_x33__x5F_21" x="920" y="343" class="st1" width="3" height="8"/>
	<rect id="_x33__x5F_22" x="923" y="346" class="st0" width="3" height="8"/>
	<rect id="_x33__x5F_23" x="926" y="349" class="st1" width="3" height="8"/>
	<rect id="_x33__x5F_24" x="929" y="352" class="st0" width="3" height="8"/>
	<rect id="_x33__x5F_25" x="932" y="355" class="st1" width="3" height="8"/>
	<rect id="_x33__x5F_26" x="935" y="358" class="st0" width="3" height="8"/>
	<rect id="_x33__x5F_27" x="938" y="361" class="st1" width="3" height="8"/>
	<rect id="_x33__x5F_28" x="941" y="364" class="st0" width="3" height="8"/>
	<rect id="_x33__x5F_29" x="944" y="367" class="st1" width="3" height="8"/>
	<rect id="_x33__x5F_30" x="947" y="370" class="st0" width="3" height="8"/>
	<rect id="_x33__x5F_31" x="950" y="373" class="st1" width="3" height="8"/>
	<rect id="conv_0" x="563" y="459.5" class="st2" width="2" height="20"/>
	<rect id="conv_1" x="745" y="381" class="st2" width="5" height="10"/>
	<rect id="conv_2" x="813.1" y="350.4" class="st2" width="2" height="8"/>
	<line id="conv_0_1_" class="st3" x1="565" y1="479.5" x2="743.3" y2="397.3"/>
	<line id="conv_0_2_" class="st3" x1="565" y1="459.5" x2="743.3" y2="397.3"/>
	<line id="conv_1_1_" class="st3" x1="750" y1="391" x2="814" y2="354"/>
	<line id="conv_1_2_" class="st3" x1="750" y1="381" x2="814" y2="354"/>
	<line id="conv_2_1_" class="st3" x1="815.1" y1="358.4" x2="952.1" y2="374.6"/>
	<line id="conv_2_2_" class="st3" x1="815.1" y1="350.4" x2="952.1" y2="374.6"/>
	<polygon id="fc_0" class="st1" points="937,282.7 947,282.7 1037.5,373.3 1027.5,373.3 	"/>
	<polygon id="fc_1" class="st1" points="1039.5,324.5 1049.5,324.5 1056.6,331.5 1046.6,331.5 	"/>
	<line id="fc_0_1_" class="st4" x1="953" y1="376" x2="1027.5" y2="373.3"/>
	<line id="fc_0_2_" class="st3" x1="860" y1="280" x2="937" y2="282.7"/>
	<line id="fc_1_1_" class="st3" x1="1037.5" y1="373.3" x2="1046.6" y2="331.5"/>
	<line id="fc_1_2_" class="st3" x1="947" y1="282.7" x2="1039.5" y2="324.5"/>
	<text transform="matrix(0.7047 0 0 0.7047 621.2504 408.5001)" class="st5 st6">Conv2D</text>
	<text transform="matrix(0.7047 0 0 0.7047 760.8184 408.5001)" class="st5 st6">Conv2D</text>
	<text transform="matrix(0.7047 0 0 0.7047 841.7222 387.5002)" class="st5 st6">Conv2D</text>
	<text transform="matrix(0.7047 0 0 0.7047 894.5002 424.0437)" class="st5 st6">GlobalAveragePooling</text>
	<text transform="matrix(0.7047 0 0 0.7047 540.368 253.8738)" class="st5 st6">1@256x6</text>
	<text transform="matrix(0.7047 0 0 0.7047 652.0002 268.5743)" class="st5 st6">128@48x6</text>
	<text transform="matrix(0.7047 0 0 0.7047 740.0002 295.0001)" class="st5 st6">16@20x2</text>
	<text transform="matrix(0.7047 0 0 0.7047 832.7123 270.9948)" class="st5 st6">128@5x1</text>
	<text transform="matrix(0.7047 0 0 0.7047 929.0002 276.5001)" class="st5 st6">1x128</text>
	<text transform="matrix(0.7047 0 0 0.7047 1056.5811 330.5001)" class="st5 st6">10</text>
</g>
</svg>
