<?xml version="1.0" encoding="utf-8"?>
<!-- Generator: Adobe Illustrator 24.1.3, SVG Export Plug-In . SVG Version: 6.00 Build 0)  -->
<svg version="1.1" id="Layer_1" xmlns="http://www.w3.org/2000/svg" xmlns:xlink="http://www.w3.org/1999/xlink" x="0px" y="0px"
	 viewBox="0 0 35.8 43.4" style="enable-background:new 0 0 35.8 43.4;" xml:space="preserve">
<style type="text/css">
	.st0{fill:#F23869;}
	.st1{opacity:0.99;}
	.st2{fill:#17A8DD;}
</style>
<g>
	<path class="st0" d="M13.8,36c0,1.1,0.9,2,2,2s2-0.9,2-2c0-0.7-0.4-1.4-1-1.7V25h-2v9.3C14.2,34.6,13.8,35.2,13.8,36z"/>
	<path class="st0" d="M11.8,29.6l-1.7,1.7c-0.2,0.2-0.3,0.4-0.3,0.7v2.3c-0.6,0.3-1,1-1,1.7c0,1.1,0.9,2,2,2s2-0.9,2-2
		c0-0.7-0.4-1.4-1-1.7v-1.9l1.7-1.7c0.2-0.2,0.3-0.4,0.3-0.7v-4h-2V29.6z"/>
	<path class="st0" d="M18.1,30.7l1.7,1.7v1.9c-0.6,0.3-1,1-1,1.7c0,1.1,0.9,2,2,2s2-0.9,2-2c0-0.7-0.4-1.4-1-1.7V32
		c0-0.3-0.1-0.5-0.3-0.7l-1.7-1.7V26h-2v4C17.8,30.2,17.9,30.5,18.1,30.7z"/>
	<path class="st1" d="M44.7,29.3c0,0.3-0.1,0.5-0.3,0.7c-1.8,1.6-2.7,3.4-2.7,5.3s0.9,3.6,2.7,5.3c0.4,0.4,0.4,1,0.1,1.4
		c-0.4,0.4-1,0.4-1.4,0.1c-2.2-2-3.3-4.3-3.3-6.7s1.1-4.7,3.3-6.7c0.4-0.4,1-0.3,1.4,0.1C44.6,28.8,44.7,29.1,44.7,29.3z"/>
	<path class="st1" d="M46.7,31.3c0,0.3-0.1,0.5-0.3,0.7c-2.2,2-2.2,4.5,0,6.5c0.4,0.4,0.4,1,0.1,1.4c-0.4,0.4-1,0.4-1.4,0.1
		c-1.5-1.4-2.3-3-2.3-4.7s0.8-3.3,2.3-4.7c0.4-0.4,1-0.3,1.4,0.1C46.6,30.8,46.7,31.1,46.7,31.3z"/>
	<path class="st1" d="M48.7,33.3c0,0.3-0.1,0.5-0.3,0.7c-0.3,0.3-0.7,0.7-0.7,1.3s0.4,1,0.7,1.3c0.4,0.4,0.4,1,0.1,1.4
		c-0.4,0.4-1,0.4-1.4,0.1c-1.7-1.6-1.7-3.9,0-5.5c0.4-0.4,1-0.3,1.4,0.1C48.6,32.8,48.7,33.1,48.7,33.3z"/>
	<g>
		<path d="M24.6,22.2L24.6,22.2l-0.1-1.3c0-0.8-0.6-1.4-1.4-1.4h-0.7v-6.9c0-3.7-3-6.6-6.6-6.6s-6.6,3-6.6,6.6v6.9H8.5
			c-0.8,0-1.4,0.6-1.4,1.4v1.3H7c-0.8,0-1.4,0.6-1.4,1.4v1.9c0,0.3,0.3,0.6,0.6,0.6h19.3c0.3,0,0.6-0.3,0.6-0.6v-1.9
			C26.1,22.8,25.4,22.2,24.6,22.2z M10.6,19.4l-0.2-6.9l0,0c0-3,2.4-5.4,5.4-5.4s5.4,2.4,5.4,5.4v6.9 M8.3,20.9
			c0-0.1,0.1-0.2,0.2-0.2h14.6c0.1,0,0.2,0.1,0.2,0.2v1.3h-15C8.3,22.2,8.3,20.9,8.3,20.9z M24.9,24.9L24.9,24.9H6.8v-1.3
			c0-0.1,0.1-0.2,0.2-0.2h17.6c0.1,0,0.2,0.1,0.2,0.2L24.9,24.9L24.9,24.9z"/>
		<path class="st0" d="M8,12.5c0-0.3-0.3-0.6-0.6-0.6H3c-0.3,0-0.6,0.3-0.6,0.6s0.3,0.6,0.6,0.6h4.4C7.7,13.1,8,12.8,8,12.5z"/>
		<path class="st0" d="M28.7,11.9h-4.4c-0.3,0-0.6,0.3-0.6,0.6s0.3,0.6,0.6,0.6h4.4c0.3,0,0.6-0.3,0.6-0.6S29,11.9,28.7,11.9z"/>
		<path class="st2" d="M15.8,3c0.3,0,0.6-0.3,0.6-0.6V1.2c0-0.3-0.3-0.6-0.6-0.6s-0.6,0.3-0.6,0.6v1.2C15.2,2.8,15.5,3,15.8,3z"/>
		<path class="st2" d="M5.8,7.4l1,0.6C6.9,8,7,8.1,7.1,8.1c0.2,0,0.4-0.1,0.5-0.3C7.8,7.5,7.7,7.1,7.4,7l-1-0.6
			C6.1,6.2,5.7,6.3,5.6,6.6C5.4,6.8,5.5,7.2,5.8,7.4z"/>
		<path class="st0" d="M19.8,5.7c0.1,0.1,0.2,0.1,0.3,0.1c0.2,0,0.4-0.1,0.5-0.3l2.2-3.8C23,1.4,22.9,1,22.6,0.9
			c-0.3-0.2-0.7-0.1-0.8,0.2l-2.2,3.8C19.4,5.1,19.5,5.5,19.8,5.7z"/>
		<path class="st0" d="M11.1,5.5c0.1,0.2,0.3,0.3,0.5,0.3c0.1,0,0.2,0,0.3-0.1c0.3-0.2,0.4-0.5,0.2-0.8L9.9,1
			C9.8,0.8,9.4,0.7,9.1,0.8C8.8,1,8.7,1.4,8.9,1.6L11.1,5.5z"/>
		<path class="st2" d="M24.5,8.1c0.1,0,0.2,0,0.3-0.1l1-0.6c0.3-0.2,0.4-0.5,0.2-0.8c-0.2-0.3-0.5-0.4-0.8-0.2l-1,0.6
			c-0.3,0.2-0.4,0.5-0.2,0.8C24.1,8,24.3,8.1,24.5,8.1z"/>
		<path class="st2" d="M7,22.2 M16.4,19.4v-3.3l1.9,0.6c0.1,0,0.1,0,0.2,0s0.2,0,0.4-0.1c0.2-0.1,0.3-0.3,0.3-0.5v-4.5
			c0-0.2-0.1-0.4-0.3-0.5C18.7,11,18.5,11,18.4,11l-2.5,0.8L13.4,11c-0.2-0.1-0.4,0-0.5,0.1c-0.2,0.1-0.3,0.3-0.3,0.5v4.5
			c0,0.2,0.1,0.4,0.3,0.5c0.1,0.1,0.2,0.1,0.4,0.1c0.1,0,0.1,0,0.2,0l1.9-0.6v3.3 M16.4,14.8v-0.2V13l1.5-0.5v2.9L16.4,14.8z
			 M15.2,13v1.6v0.2l-1.5,0.5v-2.9L15.2,13z M24.9,24.9L24.9,24.9L24.9,24.9"/>
	</g>
</g>
</svg>
