<?xml version="1.0" encoding="utf-8"?>
<!-- Generator: Adobe Illustrator 24.1.3, SVG Export Plug-In . SVG Version: 6.00 Build 0)  -->
<svg version="1.1" id="Layer_1" xmlns="http://www.w3.org/2000/svg" xmlns:xlink="http://www.w3.org/1999/xlink" x="0px" y="0px"
	 viewBox="0 0 1536 714" style="enable-background:new 0 0 1536 714;" xml:space="preserve">
<style type="text/css">
	.st0{fill:none;enable-background:new    ;}
	.st1{fill:none;stroke:#000000;stroke-linecap:round;}
	.st2{fill:#EEEEEE;fill-opacity:0.56;}
	.st3{fill:#99DDFF;fill-opacity:0.37;}
	.st4{fill:#FFBBBB;fill-opacity:0.37;}
	.st5{fill:none;stroke:#000000;stroke-linecap:round;enable-background:new    ;}
	.st6{fill:none;}
	.st7{font-family:'ArialMT';}
	.st8{font-size:23px;}
</style>
<path class="st0" d="M0,0"/>
<path class="st1" d="M760.9,410.7l-5.1-1.1 M755.8,166.4v243.2 M755.8,409.6L633,515.9 M760.9,167.5v243.2 M760.9,410.7L638.1,517
	 M615.5,458.7l-5.1-1.1 M610.5,139.6v318 M610.5,457.6l-45.4,39.2 M615.5,140.7v318 M615.5,458.7l-45.4,39.2"/>
<path class="st2" d="M565.1,496.9l45.4-39.2l5.1,1.1L565.1,496.9z M760.9,410.7l-5.1-1.1V166.4L760.9,410.7z M615.5,458.7l-5.1-1.1
	v-318L615.5,458.7z M570.2,497.9l-5.1-1.1l50.4-38.2L570.2,497.9z"/>
<path class="st1" d="M610.7,350.2l-5.1-1.1 M605.7,144.5v204.7 M605.7,349.1l-2.5,2.2 M608.2,145v204.7 M608.2,349.7l-2.5,2.2
	 M608.2,349.7l133.7-90.6 M610.7,145.6v204.7 M610.7,350.2l-2.5,2.2"/>
<path class="st3" d="M603.1,351.3l2.5-2.2l5.1,1.1L603.1,351.3z M608.2,352.4l-5.1-1.1l7.6-1.1L608.2,352.4z"/>
<path class="st1" d="M603.1,146.6v204.7 M603.1,351.3l5.1,1.1 M858.7,423.5l-5.1-1.1 M853.6,214.7v207.8 M853.6,422.4l-105.3,91.1
	 M605.7,351.9V147.2 M605.7,351.9l136.2-92.8 M608.2,147.7v204.7 M858.7,215.8v207.8 M858.7,423.5l-105.3,91.1"/>
<path class="st2" d="M633,515.9l122.8-106.3l5.1,1.1L633,515.9z M760.9,167.5v243.2l-5.1-244.3L760.9,167.5z"/>
<path class="st4" d="M605.7,351.9l2.5-2.2l133.7-90.6L605.7,351.9z"/>
<path class="st2" d="M570.2,497.9l45.4-39.2v-318L570.2,497.9z"/>
<path class="st1" d="M565.1,178.8v318 M565.1,496.9l5.1,1.1 M570.2,179.9v318"/>
<path class="st3" d="M610.7,350.2l-5.1-1.1V144.5L610.7,350.2z"/>
<path class="st4" d="M608.2,145v204.7l-2.5,2.2L608.2,145z"/>
<path class="st3" d="M605.7,349.1l-2.5,2.2V146.6L605.7,349.1z M608.2,352.4l2.5-2.2V145.6L608.2,352.4z M603.1,351.3l5.1,1.1V147.7
	L603.1,351.3z"/>
<path class="st2" d="M858.7,423.5l-5.1-1.1V214.7L858.7,423.5z M615.5,140.7v318l-5.1-319.1L615.5,140.7z M610.5,457.6l-45.4,39.2
	v-318L610.5,457.6z"/>
<path class="st1" d="M608.2,145l133.7,114.1 M605.7,147.2l136.2,111.9"/>
<path class="st4" d="M608.2,349.7V145l133.7,114.1L608.2,349.7z"/>
<path class="st2" d="M638.1,517l122.8-106.3V167.5L638.1,517z"/>
<path class="st1" d="M760.9,167.5l-5.1-1.1 M755.8,166.4L633,272.7"/>
<path class="st4" d="M605.7,147.2v204.7l136.2-92.8L605.7,147.2z"/>
<path class="st1" d="M760.9,167.5L638.1,273.8"/>
<path class="st2" d="M610.5,139.6v318l-45.4-278.8L610.5,139.6z"/>
<path class="st3" d="M610.7,145.6v204.7l-5.1-205.8L610.7,145.6z M605.7,144.5v204.7l-2.5-202.5L605.7,144.5z"/>
<path class="st4" d="M608.2,145l-2.5,206.9V147.2L608.2,145z"/>
<path class="st2" d="M748.4,513.5l105.3-91.1l5.1,1.1L748.4,513.5z"/>
<path class="st3" d="M608.2,147.7v204.7l2.5-206.9L608.2,147.7z M603.1,146.6v204.7l5.1-203.6L603.1,146.6z"/>
<path class="st2" d="M565.1,496.9l5.1,1.1V180L565.1,496.9z M858.7,215.8v207.8l-5.1-208.9L858.7,215.8z"/>
<path class="st1" d="M1089.5,436.5l-5.1-1.1 M1084.4,263.1v172.3 M1084.4,435.4L944,556.9 M1089.5,264.2v172.3 M1089.5,436.5
	L949.1,558 M842.6,341l-5.1-1.1 M837.5,334.8v5.1 M837.5,339.9l-2.5,2.2 M840,335.4v5.1 M840,340.5l-2.5,2.2 M840,340.5l87.7,34.3"
	/>
<path class="st4" d="M608.2,145l-2.5,2.2l136.2,111.9L608.2,145z"/>
<path class="st3" d="M842.6,341l-5.1-1.1v-5.1L842.6,341z"/>
<path class="st2" d="M638.1,517l-5.1-1.1l127.9-105.2L638.1,517z"/>
<path class="st1" d="M842.6,335.9v5.1 M842.6,341l-2.5,2.2"/>
<path class="st3" d="M835,342.1l2.5-2.2l5.1,1.1L835,342.1z"/>
<path class="st1" d="M842.6,335.9l-5.1-1.1 M837.5,334.8L835,337"/>
<path class="st3" d="M842.6,335.9v5.1l-5.1-6.2L842.6,335.9z M837.5,334.8v5.1L835,337L837.5,334.8z"/>
<path class="st4" d="M840,335.4v5.1l-2.5,2.2L840,335.4z"/>
<path class="st1" d="M840,335.4l-2.5,2.2 M840,335.4l87.7,39.5"/>
<path class="st3" d="M837.5,339.9l-2.5,2.2V337L837.5,339.9z"/>
<path class="st2" d="M755.8,166.4v243.2L633,272.7L755.8,166.4z"/>
<path class="st3" d="M840.1,343.2l-5.1-1.1l7.6-1.1L840.1,343.2z"/>
<path class="st1" d="M835,337v5.1 M835,342.1l5.1,1.1"/>
<path class="st3" d="M840.1,343.2l2.5-2.2v-5.1L840.1,343.2z"/>
<path class="st1" d="M842.6,335.9l-2.5,2.2"/>
<path class="st3" d="M840.1,338.1l2.5-2.2l-5.1-1.1L840.1,338.1z"/>
<path class="st1" d="M837.5,342.7v-5.1 M837.5,342.7l90.2,32.2"/>
<path class="st4" d="M840,335.4l-2.5,7.3v-5.1L840,335.4z"/>
<path class="st3" d="M835,337l5.1,1.1l-2.5-3.3L835,337z"/>
<path class="st1" d="M840.1,338.1v5.1"/>
<path class="st3" d="M835,342.1l5.1,1.1v-5.1L835,342.1z M840.1,338.1v5.1l2.5-7.3L840.1,338.1z M835,337v5.1l5.1-4L835,337z"/>
<path class="st1" d="M835,337l5.1,1.1 M837.5,337.6l90.2,37.3 M615.5,140.7l-5.1-1.1 M610.5,139.6l-45.4,39.2 M615.5,140.7
	l-45.4,39.2"/>
<path class="st2" d="M570.2,179.9v318l45.4-357.3L570.2,179.9z"/>
<path class="st1" d="M610.7,145.6l-5.1-1.1 M605.7,144.5l-2.5,2.2 M608.2,145l-2.5,2.2 M610.7,145.6l-2.5,2.2"/>
<path class="st3" d="M608.2,147.7l2.5-2.2l-5.1-1.1L608.2,147.7z"/>
<path class="st1" d="M939,469.2l-5.1-1.1 M933.9,260.4v207.8 M933.9,468.2l-52.6,45.5"/>
<path class="st3" d="M603.1,146.6l5.1,1.1l-2.5-3.3L603.1,146.6z"/>
<path class="st1" d="M603.1,146.6l5.1,1.1 M939,261.5v207.8 M939,469.2l-52.6,45.5"/>
<path class="st2" d="M753.4,514.6l105.3-91.1V215.8L753.4,514.6z"/>
<path class="st1" d="M858.7,215.8l-5.1-1.1 M853.6,214.7l-105.3,91.1"/>
<path class="st2" d="M1089.5,436.5l-5.1-1.1V263.1L1089.5,436.5z"/>
<path class="st1" d="M858.7,215.8l-105.3,91.1"/>
<path class="st4" d="M840,340.5v-5.1l87.7,39.5L840,340.5z M837.5,342.7l2.5-2.2l87.7,34.3L837.5,342.7z M840,335.4l-2.5,2.2
	l90.2,37.3L840,335.4z M837.5,337.6v5.1l90.2,32.2L837.5,337.6z"/>
<path class="st2" d="M570.2,179.9l45.4-39.2l-5.1-1.1L570.2,179.9z M755.8,409.6L633,515.9V272.7L755.8,409.6z M565.1,178.8v318
	l5.1-316.9L565.1,178.8z M638.1,273.8l122.8-106.3l-5.1-1.1L638.1,273.8z M881.3,513.7l52.6-45.5l5.1,1.1L881.3,513.7z M753.4,514.6
	l-5.1-1.1l110.4-90L753.4,514.6z M1089.5,264.2v172.3l-5.1-173.4L1089.5,264.2z M939,469.2l-5.1-1.1V260.4L939,469.2z"/>
<path class="st1" d="M1196.1,440.8l-5.1-1.1 M1191,304.7v135 M1191,439.7l-140.4,121.5"/>
<path class="st2" d="M853.6,214.7v207.8L748.4,305.8L853.6,214.7z"/>
<path class="st1" d="M1196.1,305.8v135 M1196.1,440.8l-140.4,121.5"/>
<path class="st2" d="M565.1,178.8l5.1,1.1l40.3-40.3L565.1,178.8z"/>
<path class="st1" d="M633,272.7v243.2 M633,515.9l5.1,1.1"/>
<path class="st2" d="M1196.1,440.8l-5.1-1.1v-135L1196.1,440.8z"/>
<path class="st1" d="M638.1,273.8V517 M1089.5,264.2l-5.1-1.1 M1084.4,263.1L944,384.6"/>
<path class="st2" d="M638.1,273.8V517l122.8-349.5L638.1,273.8z"/>
<path class="st1" d="M1089.5,264.2L949.1,385.6"/>
<path class="st2" d="M944,556.9l140.4-121.5l5.1,1.1L944,556.9z M853.6,422.4l-105.3,91.1V305.8L853.6,422.4z M886.4,514.8l-5.1-1.1
	l57.7-44.5L886.4,514.8z M886.4,514.8l52.6-45.5V261.5L886.4,514.8z M939,261.5v207.8l-5.1-208.9L939,261.5z M753.4,306.9
	l105.3-91.1l-5.1-1.1L753.4,306.9z"/>
<path class="st1" d="M565.1,178.8l5.1,1.1 M662.1,367.9l-5.1-1.1 M657.1,356.6v10.2 M657.1,366.8l-2.5,2.2 M659.6,357.1v10.2
	 M659.6,367.3l-2.5,2.2 M659.6,367.3L770.5,383 M662.1,357.7v10.2 M662.1,367.9l-2.5,2.2"/>
<path class="st3" d="M654.5,369l2.5-2.2l5.1,1.1L654.5,369z M662.1,367.9l-5.1-1.1v-10.2L662.1,367.9z"/>
<path class="st4" d="M659.6,357.1v10.2l-2.5,2.2L659.6,357.1z"/>
<path class="st3" d="M659.6,370.1l-5.1-1.1l7.6-1.1L659.6,370.1z"/>
<path class="st1" d="M654.5,358.8V369 M654.5,369l5.1,1.1"/>
<path class="st3" d="M657.1,366.8l-2.5,2.2v-10.2L657.1,366.8z M662.1,357.7v10.2l-5.1-11.3L662.1,357.7z M657.1,356.6v10.2l-2.5-8
	L657.1,356.6z"/>
<path class="st1" d="M662.1,357.7l-5.1-1.1 M657.1,356.6l-2.5,2.2"/>
<path class="st3" d="M659.6,370.1l2.5-2.2v-10.2L659.6,370.1z"/>
<path class="st1" d="M657.1,369.5v-10.2 M657.1,369.5L770.5,383 M659.6,357.1l-2.5,2.2 M659.6,357.1L770.5,383"/>
<path class="st2" d="M1196.1,305.8v135l-5.1-136.1L1196.1,305.8z"/>
<path class="st1" d="M659.6,359.8V370 M662.1,357.7l-2.5,2.2"/>
<path class="st4" d="M659.6,357.1l-2.5,12.4v-10.2L659.6,357.1z"/>
<path class="st3" d="M654.5,369l5.1,1.1v-10.2L654.5,369z M659.6,359.8l2.5-2.2l-5.1-1.1L659.6,359.8z M659.6,359.8V370l2.5-12.4
	L659.6,359.8z M654.5,358.8V369l5.1-9.1L654.5,358.8z M654.5,358.8l5.1,1.1l-2.5-3.3L654.5,358.8z"/>
<path class="st1" d="M654.5,358.8l5.1,1.1 M657.1,359.3L770.5,383"/>
<path class="st4" d="M657.1,369.5l2.5-2.2L770.5,383L657.1,369.5z M659.6,367.3v-10.2L770.5,383L659.6,367.3z"/>
<path class="st2" d="M949.1,558l140.4-121.5V264.2L949.1,558z"/>
<path class="st4" d="M657.1,359.3v10.2L770.5,383L657.1,359.3z M659.6,357.1l-2.5,2.2L770.5,383L659.6,357.1z"/>
<path class="st2" d="M633,515.9l5.1,1.1V273.8L633,515.9z"/>
<path class="st1" d="M748.4,305.8v207.8 M748.4,513.5l5.1,1.1 M881.3,305.9v207.8 M881.3,513.7l5.1,1.1"/>
<path class="st2" d="M933.9,468.2l-52.6,45.5V305.9L933.9,468.2z"/>
<path class="st1" d="M753.4,306.9v207.8 M894,475.1l-5.1-1.1 M888.9,320.5V474 M888.9,474l-2.5,2.2"/>
<path class="st2" d="M633,272.7l5.1,1.1l117.7-107.4L633,272.7z"/>
<path class="st1" d="M886.4,307v207.8"/>
<path class="st2" d="M933.9,260.4v207.8L881.3,306L933.9,260.4z"/>
<path class="st1" d="M891.4,321.1v153.5 M891.4,474.6l-2.5,2.2 M891.4,474.6l72.1-26.1 M1196.1,305.8l-5.1-1.1 M1191,304.7
	l-140.4,121.5 M939,261.5l-5.1-1.1 M933.9,260.4l-52.6,45.5 M894,321.6v153.5 M894,475.1l-2.5,2.2"/>
<path class="st3" d="M886.4,476.2l2.5-2.2l5.1,1.1L886.4,476.2z"/>
<path class="st2" d="M753.4,306.9v207.8l105.3-298.9L753.4,306.9z"/>
<path class="st1" d="M1196.1,305.8l-140.4,121.5 M939,261.5L886.4,307"/>
<path class="st3" d="M891.5,477.3l-5.1-1.1l7.6-1.1L891.5,477.3z"/>
<path class="st1" d="M886.4,322.7v153.5 M886.4,476.2l5.1,1.1 M888.9,476.8V323.3 M888.9,476.8l74.6-28.3 M891.5,323.8v153.5"/>
<path class="st2" d="M1084.4,263.1v172.3L944,384.6L1084.4,263.1z M1050.6,561.2L1191,439.7l5.1,1.1L1050.6,561.2z"/>
<path class="st3" d="M894,475.1l-5.1-1.1V320.5L894,475.1z"/>
<path class="st4" d="M891.4,321.1v153.5l-2.5,2.2L891.4,321.1z"/>
<path class="st3" d="M888.9,474l-2.5,2.2V322.7L888.9,474z M891.5,477.3l2.5-2.2V321.6L891.5,477.3z M886.4,476.2l5.1,1.1V323.8
	L886.4,476.2z"/>
<path class="st2" d="M748.4,513.5l5.1,1.1V306.9L748.4,513.5z M881.3,513.7l5.1,1.1V307L881.3,513.7z M748.4,305.8l5.1,1.1
	l100.2-92.2L748.4,305.8z M886.4,307v207.8L939,261.5L886.4,307z M633,272.7v243.2l5.1-242.2L633,272.7z M886.4,307l52.6-45.5
	l-5.1-1.1L886.4,307z"/>
<path class="st1" d="M1291.5,669.6l-35.2-7.6 M1256.3,243.2V662 M1256.3,662l-17.5,15.2"/>
<path class="st2" d="M1055.7,562.3l140.4-121.5v-135L1055.7,562.3z M949.1,385.6l140.4-121.5l-5.1-1.1L949.1,385.6z"/>
<path class="st3" d="M894,321.6v153.5l-5.1-154.6L894,321.6z M888.9,320.5V474l-2.5-151.3L888.9,320.5z"/>
<path class="st2" d="M949.1,558l-5.1-1.1l145.4-120.4L949.1,558z"/>
<path class="st4" d="M888.9,476.8l2.5-2.2l72.1-26.1L888.9,476.8z"/>
<path class="st1" d="M1291.5,250.8v418.8 M1291.5,669.6l-17.5,15.2"/>
<path class="st2" d="M1238.8,677.2l17.5-15.2l35.2,7.6L1238.8,677.2z"/>
<path class="st4" d="M891.4,321.1l-2.5,155.7V323.3L891.4,321.1z"/>
<path class="st3" d="M891.5,323.8v153.5l2.5-155.7L891.5,323.8z M886.4,322.7v153.5l5.1-152.4L886.4,322.7z"/>
<path class="st2" d="M1191,304.7v135l-140.4-13.6L1191,304.7z M748.4,305.8v207.8l5.1-206.7L748.4,305.8z M881.3,305.9v207.8
	l5.1-206.7L881.3,305.9z M881.3,305.9l5.1,1.1l47.6-46.6L881.3,305.9z M1273.9,684.7l-35.2-7.6l52.7-7.6L1273.9,684.7z"/>
<path class="st1" d="M1238.8,258.4v418.8 M1238.8,677.2l35.2,7.6 M894,321.6l-5.1-1.1 M888.9,320.5l-2.5,2.2 M633,272.7l5.1,1.1
	 M891.4,321.1l-2.5,2.2 M891.4,321.1l72.1,127.4"/>
<path class="st4" d="M891.4,474.6V321.1l72.1,127.4L891.4,474.6z"/>
<path class="st1" d="M894,321.6l-2.5,2.2"/>
<path class="st3" d="M891.5,323.8l2.5-2.2l-5.1-1.1L891.5,323.8z"/>
<path class="st2" d="M1084.4,435.4L944,556.9V384.6L1084.4,435.4z"/>
<path class="st3" d="M886.4,322.7l5.1,1.1l-2.5-3.3L886.4,322.7z"/>
<path class="st1" d="M886.4,322.7l5.1,1.1"/>
<path class="st4" d="M888.9,323.3v153.5l74.6-28.3L888.9,323.3z"/>
<path class="st1" d="M888.9,323.3l74.6,125.2 M1273.9,265.9v418.8"/>
<path class="st2" d="M1055.7,427.2l140.4-121.5l-5.1-1.1L1055.7,427.2z"/>
<path class="st1" d="M748.4,305.8l5.1,1.1 M881.3,305.9l5.1,1.1"/>
<path class="st4" d="M891.4,321.1l-2.5,2.2l74.6,125.2L891.4,321.1z"/>
<path class="st2" d="M949.1,385.6V558l140.4-293.8L949.1,385.6z"/>
<path class="st1" d="M1146,438.3l60.9,13.1"/>
<path class="st2" d="M1055.7,562.3l-5.1-1.1L1196,440.8L1055.7,562.3z M1291.5,669.6l-35.2-7.6V243.2L1291.5,669.6z"/>
<path class="st1" d="M976.3,458.7l-5.1-1.1 M971.2,452.5v5.1 M971.2,457.6l-2.5,2.2 M973.7,453v5.1 M973.7,458.1l-2.5,2.2
	 M973.7,458.1l105.3,26.5"/>
<path class="st3" d="M976.3,458.7l-5.1-1.1v-5.1L976.3,458.7z"/>
<path class="st1" d="M976.3,453.6v5.1 M976.3,458.7l-2.5,2.2"/>
<path class="st3" d="M968.7,459.8l2.5-2.2l5.1,1.1L968.7,459.8z"/>
<path class="st1" d="M976.3,453.6l-5.1-1.1 M971.2,452.5l-2.5,2.2"/>
<path class="st3" d="M976.3,453.6v5.1l-5.1-6.2L976.3,453.6z M971.2,452.5v5.1l-2.5-2.9L971.2,452.5z"/>
<path class="st4" d="M973.7,453v5.1l-2.5,2.2L973.7,453z"/>
<path class="st1" d="M973.7,453l-2.5,2.2 M973.7,453l105.3,31.7"/>
<path class="st3" d="M971.2,457.6l-2.5,2.2v-5.1L971.2,457.6z"/>
<path class="st2" d="M1256.3,662l-17.5,15.2V258.4L1256.3,662z"/>
<path class="st3" d="M973.7,460.9l-5.1-1.1l7.6-1.1L973.7,460.9z"/>
<path class="st1" d="M968.7,454.7v5.1 M968.7,459.8l5.1,1.1"/>
<path class="st3" d="M973.7,460.9l2.5-2.2v-5.1L973.7,460.9z"/>
<path class="st1" d="M976.3,453.6l-2.5,2.2"/>
<path class="st3" d="M973.7,455.8l2.5-2.2l-5.1-1.1L973.7,455.8z"/>
<path class="st1" d="M971.2,460.3v-5.1 M971.2,460.3l107.9,24.4"/>
<path class="st4" d="M973.7,453l-2.5,7.3v-5.1L973.7,453z"/>
<path class="st3" d="M968.7,454.7l5.1,1.1l-2.5-3.3L968.7,454.7z"/>
<path class="st2" d="M1191,439.7l-140.4,121.5v-135L1191,439.7z"/>
<path class="st1" d="M973.7,455.8v5.1"/>
<path class="st3" d="M968.7,459.8l5.1,1.1v-5.1L968.7,459.8z M973.7,455.8v5.1l2.5-7.3L973.7,455.8z M968.7,454.7v5.1l5.1-4
	L968.7,454.7z"/>
<path class="st1" d="M968.7,454.7l5.1,1.1 M971.2,455.2l107.9,29.5"/>
<path class="st2" d="M1273.9,684.7l17.5-15.2V250.8L1273.9,684.7z M944,384.6l5.1,1.1l135.3-122.6L944,384.6z"/>
<path class="st1" d="M944,384.6v172.3 M944,556.9l5.1,1.1 M949.1,385.6V558"/>
<path class="st4" d="M973.7,458.1V453l105.3,31.7L973.7,458.1z M971.2,460.3l2.5-2.2l105.3,26.5L971.2,460.3z"/>
<path d="M1200.9,460.6l6,3.6l35.5-5.1L1200.9,460.6z"/>
<path class="st4" d="M973.7,453l-2.5,2.2l107.9,29.5L973.7,453z M971.2,455.2v5.1l107.9,24.4L971.2,455.2z"/>
<path d="M1210.6,437.9l-7.4,6.4l39.3,14.8L1210.6,437.9z"/>
<path class="st2" d="M1238.8,677.2l35.2,7.6V265.9L1238.8,677.2z"/>
<path d="M1203.2,444.3l-2.3,16.3l41.6-1.5L1203.2,444.3z"/>
<path class="st2" d="M1055.7,427.2v135l140.4-256.5L1055.7,427.2z M944,556.9l5.1,1.1V385.6L944,556.9z"/>
<path class="st1" d="M1287.8,468.8l60.9,13.1"/>
<path class="st2" d="M1050.6,426.1l5.1,1.1L1191,304.7L1050.6,426.1z"/>
<path class="st1" d="M1433.3,549.6l-35.2-7.6 M1398.1,424.2V542 M1398.1,542l-17.5,15.2"/>
<path class="st2" d="M1291.5,250.8v418.8l-35.2-426.4L1291.5,250.8z M1256.3,243.2V662l-17.5-403.6L1256.3,243.2z"/>
<path class="st1" d="M1433.3,431.8v117.8 M1433.3,549.6l-17.5,15.2"/>
<path class="st2" d="M1380.5,557.2L1398,542l35.2,7.6L1380.5,557.2z M944,384.6v172.3l5.1-171.2L944,384.6z"/>
<path class="st1" d="M1050.6,426.1v135 M1050.6,561.2l5.1,1.1 M1055.7,427.2v135"/>
<path class="st2" d="M1433.3,549.6l-35.2-7.6V424.2L1433.3,549.6z M1415.7,564.8l-35.2-7.6l52.7-7.6L1415.7,564.8z"/>
<path class="st1" d="M1380.5,439.4v117.8 M1380.5,557.2l35.2,7.6"/>
<path d="M1342.7,491.1l6,3.6l35.5-5.1L1342.7,491.1z M1352.4,468.4l-7.4,6.4l39.3,14.8L1352.4,468.4z"/>
<path class="st2" d="M1273.9,265.9v418.8l17.5-434L1273.9,265.9z M1238.8,258.4v418.8L1274,266L1238.8,258.4z"/>
<path d="M1345,474.8l-2.3,16.3l41.6-1.5L1345,474.8z"/>
<path class="st2" d="M1398.1,542l-17.5,15.2V439.4L1398.1,542z M1050.6,561.2l5.1,1.1v-135L1050.6,561.2z"/>
<path class="st1" d="M944,384.6l5.1,1.1"/>
<path class="st2" d="M1415.7,564.8l17.5-15.2V431.8L1415.7,564.8z"/>
<path class="st1" d="M1415.7,446.9v117.8"/>
<path class="st2" d="M1433.3,431.8v117.8l-35.2-125.4L1433.3,431.8z M1398.1,424.2V542l-17.5-102.6L1398.1,424.2z"/>
<path class="st1" d="M1433.3,431.8l-35.2-7.6 M1398.1,424.2l-17.5,15.2"/>
<path class="st2" d="M1380.5,557.2l35.2,7.6V446.9L1380.5,557.2z M1050.6,426.1v135l5.1-134L1050.6,426.1z"/>
<path class="st1" d="M1291.5,250.8l-35.2-7.6 M1256.3,243.2l-17.5,15.2 M1433.3,431.8l-17.5,15.2"/>
<path class="st2" d="M1415.7,446.9v117.8l17.5-133L1415.7,446.9z M1380.5,439.4v117.8l35.2-110.3L1380.5,439.4z M1415.7,446.9
	l17.5-15.2l-35.2-7.6L1415.7,446.9z"/>
<path class="st1" d="M1291.5,250.8L1274,266 M1050.6,426.1l5.1,1.1"/>
<path class="st2" d="M1380.5,439.4l35.2,7.6l-17.6-22.8L1380.5,439.4z M1273.9,265.9l17.5-15.2l-35.2-7.6L1273.9,265.9z"/>
<path class="st1" d="M1380.5,439.4l35.2,7.6"/>
<path class="st2" d="M1238.8,258.4l35.2,7.6l-17.6-22.8L1238.8,258.4z"/>
<path class="st1" d="M1238.8,258.4l35.2,7.6"/>
<path class="st5" d="M0,0"/>
<rect x="525.6" y="482.2" class="st6" width="39.5" height="17.4"/>
<text transform="matrix(1 0 0 1 525.626 498.5762)" class="st7 st8">512</text>
<rect x="568.4" y="141.9" class="st6" width="19.7" height="17.4"/>
<text transform="matrix(1 0 0 1 568.3805 158.1864)" class="st7 st8">6</text>
<rect x="593.3" y="497.9" class="st6" width="39.5" height="17.4"/>
<text transform="matrix(1 0 0 1 593.266 514.2732)" class="st7 st8">128</text>
<rect x="715.9" y="497.9" class="st6" width="39.5" height="17.4"/>
<text transform="matrix(1 0 0 1 715.8657 514.2732)" class="st7 st8">58</text>
<rect x="851.3" y="497.9" class="st6" width="39.5" height="17.4"/>
<text transform="matrix(1 0 0 1 851.3196 514.2732)" class="st7 st8">58</text>
<rect x="914.5" y="539.5" class="st6" width="39.5" height="17.4"/>
<text transform="matrix(1 0 0 1 914.5199 555.8293)" class="st7 st8">29</text>
<rect x="1022.1" y="544.9" class="st6" width="39.5" height="17.4"/>
<text transform="matrix(1 0 0 1 1022.1201 561.2275)" class="st7 st8">14</text>
<rect x="1199.3" y="582.7" class="st6" width="39.5" height="17.4"/>
<text transform="matrix(1 0 0 1 1199.2635 599.0696)" class="st7 st8">358</text>
<rect x="1352.2" y="536.2" class="st6" width="39.5" height="17.4"/>
<text transform="matrix(1 0 0 1 1352.2122 552.5467)" class="st7 st8">10</text>
<rect x="679.7" y="182.9" class="st6" width="39.5" height="17.4"/>
<text transform="matrix(1 0 0 1 679.726 199.2299)" class="st7 st8">128</text>
<rect x="772.6" y="242.1" class="st6" width="39.5" height="17.4"/>
<text transform="matrix(1 0 0 1 772.581 258.4492)" class="st7 st8">64</text>
<rect x="888.6" y="271.1" class="st6" width="39.5" height="17.4"/>
<text transform="matrix(1 0 0 1 888.607 287.4184)" class="st7 st8">8</text>
<rect x="977.1" y="305.4" class="st6" width="39.5" height="17.4"/>
<text transform="matrix(1 0 0 1 977.0558 321.7505)" class="st7 st8">256</text>
<rect x="1091.2" y="343.5" class="st6" width="39.5" height="17.4"/>
<text transform="matrix(1 0 0 1 1091.1709 359.7917)" class="st7 st8">256</text>
</svg>
