<?xml version="1.0" encoding="utf-8"?>
<!-- Generator: Adobe Illustrator 24.1.3, SVG Export Plug-In . SVG Version: 6.00 Build 0)  -->
<svg version="1.1" id="Layer_1" xmlns="http://www.w3.org/2000/svg" xmlns:xlink="http://www.w3.org/1999/xlink" x="0px" y="0px"
	 viewBox="0 0 116.2 116.9" style="enable-background:new 0 0 116.2 116.9;" xml:space="preserve">
<style type="text/css">
	.st0{fill-rule:evenodd;clip-rule:evenodd;}
	.st1{fill-rule:evenodd;clip-rule:evenodd;fill:#17A8DD;}
	.st2{fill-rule:evenodd;clip-rule:evenodd;fill:#F23869;}
	.st3{opacity:0.21;}
</style>
<g id="Layer_2_1_">
	<g id="Layer_1-2">
		<path class="st0" d="M63.1,116.9c-2.1,0.1-3.9-1.6-4-3.7c0-1.4,0.7-2.8,2-3.5l0.5-0.3v-6.1l-3.9-3.6l-3.3,3.3l0.3,0.6
			c0.2,0.5,0.3,1,0.3,1.4c0,2.2-1.7,3.9-3.9,3.9s-3.9-1.7-3.9-3.9c0-2.2,1.7-3.9,3.9-3.9c0.4,0,0.8,0.1,1.2,0.2l0.6,0.2l3.3-3.3
			l-5.1-4.7c-0.2-0.2-0.3-0.5-0.3-0.8V72.6c0-0.3,0.1-0.6,0.3-0.8L62,61.7c0.4-0.4,1.1-0.4,1.5,0l10.9,10.1c0.2,0.2,0.3,0.5,0.3,0.8
			v20.2c0,0.3-0.1,0.6-0.3,0.8l-3.1,2.9v7.1h3.8l0.3-0.5c1-1.9,3.3-2.6,5.2-1.6s2.6,3.3,1.6,5.2c-1,1.9-3.3,2.6-5.2,1.6
			c-0.8-0.4-1.4-1.1-1.7-1.9l-0.3-0.6h-4.8c-0.6,0-1.1-0.5-1.1-1.1v-6.1l-5.3,4.9v5.8l0.7,0.3c2,0.7,3,2.9,2.3,4.9
			C66.3,115.9,64.8,117,63.1,116.9z"/>
		<path class="st0" d="M32.5,116.3c-2.1,0.1-3.9-1.5-4.1-3.7c-0.1-2.1,1.5-3.9,3.7-4.1c0.1,0,0.3,0,0.4,0c0.3,0,0.7,0,1,0.1l0.5,0.1
			L44,99l-3.2-3.2l-8.5,7.9c-0.4,0.4-1.1,0.4-1.5,0L19.9,93.6c-0.2-0.2-0.3-0.5-0.3-0.8V82.1h-7.4v7l0.6,0.3
			c1.9,0.9,2.8,3.2,1.9,5.2c-0.9,1.9-3.2,2.8-5.2,1.9s-2.8-3.2-1.9-5.2c0.4-0.8,1-1.5,1.9-1.9l0.6-0.3V81c0-0.6,0.5-1.1,1-1.1l0,0
			h8.5v-4h-12l-0.3,0.5C6.2,78.3,3.9,79,2,77.9s-2.5-3.4-1.4-5.3c1.1-1.8,3.4-2.5,5.3-1.4c0.8,0.4,1.4,1.2,1.7,2l0.3,0.7h11.8v-1.3
			c0-0.3,0.1-0.6,0.3-0.8l10.9-10.1c0.4-0.4,1.1-0.4,1.5,0l10.9,10.1c0.2,0.2,0.3,0.5,0.3,0.8v20.2c0,0.3-0.1,0.6-0.3,0.8l-0.8,0.7
			l0.7,0.8l3.2,3.2c0.4,0.4,0.5,1,0.1,1.4l-0.1,0.1l-10.6,10.5l0.3,0.6c0.2,0.5,0.4,1.1,0.4,1.6C36.4,114.6,34.6,116.4,32.5,116.3
			L32.5,116.3z"/>
		<path class="st1" d="M63.1,115.3c-1.2,0-2.2-1-2.2-2.2s1-2.2,2.2-2.2c1.2,0,2.2,1,2.2,2.2l0,0C65.4,114.3,64.4,115.3,63.1,115.3z"
			/>
		<path class="st1" d="M63.1,114.8c-1,0-1.7-0.8-1.7-1.7c0-1,0.8-1.7,1.7-1.7c1,0,1.7,0.8,1.7,1.7l0,0
			C64.9,114,64.1,114.8,63.1,114.8z"/>
		<path class="st1" d="M32.5,114.7c-1.2,0-2.2-1-2.2-2.2s1-2.2,2.2-2.2s2.2,1,2.2,2.2l0,0C34.7,113.7,33.7,114.7,32.5,114.7z"/>
		<path class="st1" d="M32.5,114.2c-1,0-1.7-0.8-1.7-1.7c0-1,0.8-1.7,1.7-1.7c1,0,1.7,0.8,1.7,1.7l0,0
			C34.2,113.4,33.4,114.2,32.5,114.2z"/>
		<path class="st0" d="M102.5,110.7c-2.1,0-3.9-1.7-3.9-3.8c0-1.5,0.9-3,2.3-3.6l0.6-0.3v-5.7l-6.7,6.3c-0.4,0.4-1.1,0.4-1.5,0
			l-11-10c-0.2-0.2-0.3-0.5-0.3-0.8V72.6c0-0.3,0.1-0.6,0.3-0.8l10.9-10.1c0.4-0.4,1.1-0.4,1.5,0l10.9,10.1c0.2,0.2,0.3,0.5,0.3,0.8
			v6.5h2.5l0.3-0.7c0.7-2,3-3.1,5-2.3s3.1,3,2.3,5c-0.6,1.5-2,2.6-3.7,2.5c-1.4,0-2.7-0.8-3.4-2l-0.3-0.5h-2.7v11.7
			c0,0.3-0.1,0.6-0.3,0.8l-2,1.8v7.7l0.6,0.3c1.9,0.9,2.8,3.2,1.9,5.1C105.4,109.9,104,110.7,102.5,110.7L102.5,110.7z"/>
		<path class="st1" d="M102.5,109.1c-1.2,0-2.2-1-2.2-2.2s1-2.2,2.2-2.2s2.2,1,2.2,2.2S103.7,109.1,102.5,109.1L102.5,109.1z"/>
		<path class="st1" d="M102.5,108.6c-1,0-1.7-0.8-1.7-1.7s0.8-1.7,1.7-1.7s1.7,0.8,1.7,1.7S103.4,108.6,102.5,108.6L102.5,108.6z"/>
		<path class="st1" d="M51.1,107.3c-1.2,0-2.2-1-2.2-2.2s1-2.2,2.2-2.2s2.2,1,2.2,2.2S52.3,107.3,51.1,107.3L51.1,107.3z"/>
		<path class="st1" d="M51.1,106.8c-1,0-1.7-0.8-1.7-1.7s0.8-1.7,1.7-1.7c1,0,1.7,0.8,1.7,1.7S52,106.8,51.1,106.8L51.1,106.8z"/>
		<path class="st1" d="M78.8,107.1c-1.2,0-2.2-1-2.2-2.2s1-2.2,2.2-2.2s2.2,1,2.2,2.2C81.1,106.1,80.1,107.1,78.8,107.1L78.8,107.1z
			"/>
		<path class="st1" d="M78.8,106.6c-1,0-1.7-0.8-1.7-1.7c0-1,0.8-1.7,1.7-1.7c1,0,1.7,0.8,1.7,1.7C80.6,105.8,79.8,106.6,78.8,106.6
			L78.8,106.6z"/>
		<path class="st2" d="M88.2,96.1l4.9-4.9c0.2-0.2,0.3-0.5,0.3-0.8V80l10.3-5.6v18l-9.8,9.1L88.2,96.1z"/>
		<path class="st2" d="M21.8,92.3v-18L32.2,80v10.4c0,0.3,0.1,0.6,0.3,0.8l4.8,4.8l-5.9,5.4L21.8,92.3z"/>
		<polygon class="st2" points="63.8,79.7 71.5,72.1 72.6,73 72.6,73.5 72.6,92.3 63.8,100.4 		"/>
		<polygon class="st2" points="53,92.3 53,73.1 54,72.1 54.7,72.8 61.7,79.7 61.7,100.4 		"/>
		<path class="st1" d="M11.1,95.1c-1.2,0-2.2-1-2.2-2.2s1-2.2,2.2-2.2s2.2,1,2.2,2.2S12.3,95.1,11.1,95.1z"/>
		<path class="st1" d="M11.1,94.6c-1,0-1.7-0.8-1.7-1.7s0.8-1.7,1.7-1.7c1,0,1.7,0.8,1.7,1.7C12.9,93.8,12.1,94.6,11.1,94.6
			L11.1,94.6z"/>
		<path class="st2" d="M84.2,92.3V73l9.8-9.1l9,8.4l-11.2,6.1c-0.3,0.2-0.6,0.5-0.6,0.9V90l-4.7,4.6L84.2,92.3z"/>
		<path class="st2" d="M34.4,90V79.4c0-0.4-0.2-0.7-0.6-0.9l-11.3-6.1l9-8.4l9.8,9.1v19.3L39,94.6L34.4,90z"/>
		<path class="st1" d="M112.3,82c-1.2,0-2.2-1-2.2-2.2s1-2.2,2.2-2.2s2.2,1,2.2,2.2S113.5,82,112.3,82L112.3,82z"/>
		<path class="st1" d="M112.3,81.5c-1,0-1.7-0.7-1.8-1.7s0.7-1.7,1.7-1.8s1.7,0.7,1.8,1.7l0,0C114,80.7,113.2,81.5,112.3,81.5z"/>
		<polygon class="st2" points="55.6,70.6 62.8,63.9 69.9,70.6 62.8,77.7 		"/>
		<path class="st1" d="M3.9,76.8c-1.2,0-2.2-1-2.2-2.2s1-2.2,2.2-2.2s2.2,1,2.2,2.2C6.1,75.8,5.1,76.8,3.9,76.8z"/>
		<path class="st1" d="M3.9,76.3c-1,0-1.7-0.8-1.7-1.7s0.8-1.7,1.7-1.7c1,0,1.7,0.8,1.7,1.7C5.6,75.6,4.9,76.3,3.9,76.3z"/>
		<path class="st0" d="M109.3,66.7c-2.1,0-3.9-1.7-3.9-3.9l0,0c0-0.3,0-0.6,0.1-0.9l0.1-0.5l-6.7-6.7h-9.6l-10.6,9.8
			c-0.4,0.4-1.1,0.4-1.5,0l-10.9-10C66.1,54.3,66,54,66,53.7V33.5c0-0.3,0.1-0.6,0.3-0.8l1.3-1.2v-16c0-0.6,0.5-1.1,1.1-1.1H71
			l0.3-0.6c0.8-2,3-3,5-2.2s3,3,2.2,5c-0.6,1.5-2,2.5-3.6,2.5c-1.5,0-2.9-0.9-3.6-2.3h-1.5v12.6l7.4-6.9c0.4-0.4,1.1-0.4,1.5,0
			l4.3,4v-19l-0.6-0.3c-2-0.9-2.9-3.2-2-5.1c0.9-2,3.2-2.9,5.1-2s2.9,3.2,2,5.1c-0.4,0.8-1,1.5-1.8,1.9l-0.6,0.3v21.1l4.4,4.1
			c0.2,0.2,0.3,0.5,0.3,0.8V40h8.6V28.4L98,28.1c-1.3-0.7-2.1-2-2.1-3.4c0-2.2,1.7-3.9,3.9-3.9c2.2,0,3.9,1.7,3.9,3.9
			c0,1.6-0.9,3-2.4,3.6l-0.6,0.3v12.6c0,0.6-0.5,1.1-1.1,1.1l0,0h-9.7v5.3h14.5l0.2-0.7c0.6-2,2.8-3.2,4.8-2.6
			c2,0.6,3.2,2.8,2.6,4.8s-2.8,3.2-4.8,2.6c-0.9-0.3-1.6-0.8-2.1-1.6l-0.3-0.4H89.9v3.1h9.3c0.3,0,0.6,0.1,0.8,0.3l6.8,6.8l0.6-0.3
			c1.9-1,4.2-0.2,5.2,1.7s0.2,4.2-1.7,5.2C110.5,66.5,109.9,66.7,109.3,66.7z"/>
		<path class="st0" d="M47.5,64.8c-0.3,0-0.5-0.1-0.7-0.3l-10.9-10c-0.2-0.2-0.3-0.5-0.3-0.8v-6.6H26l-6.8,6.7l0.3,0.6
			c0.2,0.5,0.4,1.1,0.4,1.7c0,2.2-1.7,3.9-3.8,3.9c-2.2,0-3.9-1.7-3.9-3.8c0-2.2,1.7-3.9,3.8-3.9l0,0c0.3,0,0.7,0,1,0.1l0.5,0.1
			l7.3-7.2c0.2-0.2,0.5-0.3,0.8-0.3h10v-6.6h-9.5c-0.6,0-1.1-0.5-1.1-1.1v-8.5l-0.5-0.3c-1.9-1.1-2.6-3.4-1.5-5.3s3.4-2.6,5.3-1.5
			c1.9,1.1,2.6,3.4,1.5,5.3c-0.4,0.8-1.2,1.4-2,1.7L27.2,29v7.3h8.4v-2.8c0-0.3,0.1-0.6,0.3-0.8l10.9-10.1c0.4-0.4,1.1-0.4,1.5,0
			l3.5,3.3v-7.2l-7.9-7.8l-0.6,0.2c-0.4,0.2-0.9,0.3-1.4,0.3c-2.1,0-3.8-1.8-3.8-3.9s1.8-3.8,3.9-3.8c2.1,0,3.8,1.7,3.8,3.9
			c0,0.4-0.1,0.9-0.2,1.3l-0.2,0.6l8.2,8.2c0.2,0.2,0.3,0.5,0.3,0.8v9.6l5.2,4.8c0.2,0.2,0.3,0.5,0.3,0.8v20.2
			c0,0.3-0.1,0.6-0.3,0.8l-10.8,9.9C48.1,64.7,47.8,64.9,47.5,64.8z"/>
		<path class="st1" d="M109.3,65.1c-1.2,0-2.2-1-2.2-2.2s1-2.2,2.2-2.2s2.2,1,2.2,2.2l0,0C111.5,64.1,110.5,65.1,109.3,65.1z"/>
		<path class="st1" d="M109.3,64.6c-1,0-1.7-0.8-1.7-1.7c0-1,0.8-1.7,1.7-1.7s1.7,0.8,1.7,1.7l0,0C111,63.8,110.2,64.6,109.3,64.6z"
			/>
		<path class="st2" d="M37.8,53.2v-16l9.5,5.2v10.5c0,0.3,0.1,0.6,0.3,0.8l4.5,4.5l-4.6,4.3L37.8,53.2z"/>
		<path class="st2" d="M73.2,57.9l4.3-4.3c0.2-0.2,0.3-0.5,0.3-0.8V42.4l10-5.4v16.3l-9.8,9L73.2,57.9z"/>
		<path class="st1" d="M16,58.3c-1.2,0-2.2-1-2.2-2.2s1-2.2,2.2-2.2s2.2,1,2.2,2.2S17.2,58.3,16,58.3z"/>
		<path class="st1" d="M16,57.8c-1,0-1.7-0.8-1.7-1.7c0-1,0.8-1.7,1.7-1.7s1.7,0.8,1.7,1.7S17,57.8,16,57.8L16,57.8z"/>
		<path class="st2" d="M49.5,52.4V41.8c0-0.4-0.2-0.8-0.6-0.9l-11.7-6.4l10.4-9.6l9.8,9.1v19.3l-3.7,3.4L49.5,52.4z"/>
		<path class="st2" d="M68.2,53.2V33.9l9.8-9.1l10.2,9.5l-12,6.5c-0.3,0.2-0.6,0.5-0.6,0.9v10.6l-4,4L68.2,53.2z"/>
		<path class="st1" d="M108.4,50.1c-1.2,0-2.2-1-2.2-2.2s1-2.2,2.2-2.2s2.2,1,2.2,2.2l0,0C110.6,49.1,109.6,50.1,108.4,50.1z"/>
		<path class="st1" d="M108.4,49.6c-1,0-1.7-0.8-1.7-1.7c0-1,0.8-1.7,1.7-1.7s1.7,0.8,1.7,1.7l0,0C110.1,48.8,109.3,49.6,108.4,49.6
			z"/>
		<path class="st1" d="M26.4,27.4c-1.2,0-2.2-1-2.2-2.2s1-2.2,2.2-2.2s2.2,1,2.2,2.2S27.6,27.4,26.4,27.4L26.4,27.4z"/>
		<path class="st1" d="M26.4,26.9c-1,0-1.7-0.8-1.7-1.7c0-1,0.8-1.7,1.7-1.7c1,0,1.7,0.8,1.7,1.7S27.4,26.9,26.4,26.9z"/>
		<path class="st1" d="M99.8,26.9c-1.2,0-2.2-1-2.2-2.2s1-2.2,2.2-2.2s2.2,1,2.2,2.2S101,26.9,99.8,26.9L99.8,26.9z"/>
		<path class="st1" d="M99.8,26.4c-1,0-1.7-0.8-1.7-1.7c0-1,0.8-1.7,1.7-1.7c1,0,1.7,0.8,1.7,1.7l0,0
			C101.5,25.6,100.7,26.4,99.8,26.4z"/>
		<path class="st1" d="M74.9,17.5c-1.2,0-2.2-1-2.2-2.2s1-2.2,2.2-2.2s2.2,1,2.2,2.2l0,0C77.1,16.5,76.1,17.5,74.9,17.5L74.9,17.5z"
			/>
		<path class="st1" d="M74.9,17c-1,0-1.7-0.8-1.7-1.7s0.8-1.7,1.7-1.7c1,0,1.7,0.8,1.7,1.7l0,0C76.6,16.2,75.9,17,74.9,17z"/>
		<path class="st1" d="M41.9,9.7c-1.2,0-2.2-1-2.2-2.2s1-2.2,2.2-2.2s2.2,1,2.2,2.2C44.2,8.7,43.2,9.7,41.9,9.7z"/>
		<path class="st1" d="M41.9,9.2c-1,0-1.7-0.8-1.7-1.7S41,5.7,42,5.7s1.7,0.8,1.7,1.7C43.7,8.4,42.9,9.2,41.9,9.2z"/>
		<path class="st1" d="M84,6.1c-1.2,0-2.2-1-2.2-2.2s1-2.2,2.2-2.2s2.2,1,2.2,2.2S85.2,6.1,84,6.1z"/>
		<path class="st1" d="M84,5.6c-1,0-1.7-0.8-1.7-1.7c0-1,0.8-1.7,1.7-1.7c1,0,1.7,0.8,1.7,1.7S85,5.6,84,5.6z"/>
	</g>
</g>
<g id="Layer_2_2_" class="st3">
	<g id="Layer_1-2_1_">
		<path class="st0" d="M64.3,117.9c-2.1,0.1-3.9-1.6-4-3.7c0-1.4,0.7-2.8,2-3.5l0.5-0.3v-6.1l-3.9-3.6l-3.3,3.3l0.3,0.6
			c0.2,0.5,0.3,1,0.3,1.4c0,2.2-1.7,3.9-3.9,3.9s-3.9-1.7-3.9-3.9c0-2.2,1.7-3.9,3.9-3.9c0.4,0,0.8,0.1,1.2,0.2l0.6,0.2l3.3-3.3
			l-5.1-4.7C52.1,94.3,52,94,52,93.7V73.6c0-0.3,0.1-0.6,0.3-0.8l10.9-10.1c0.4-0.4,1.1-0.4,1.5,0l10.9,10.1
			c0.2,0.2,0.3,0.5,0.3,0.8v20.2c0,0.3-0.1,0.6-0.3,0.8l-3.1,2.9v7.1h3.8l0.3-0.5c1-1.9,3.3-2.6,5.2-1.6s2.6,3.3,1.6,5.2
			c-1,1.9-3.3,2.6-5.2,1.6c-0.8-0.4-1.4-1.1-1.7-1.9l-0.3-0.6h-4.8c-0.6,0-1.1-0.5-1.1-1.1v-6.1l-5.3,4.9v5.8l0.7,0.3
			c2,0.7,3,2.9,2.3,4.9C67.5,116.9,66,118,64.3,117.9z"/>
		<path class="st0" d="M33.7,117.3c-2.1,0.1-3.9-1.5-4.1-3.7c-0.1-2.1,1.5-3.9,3.7-4.1c0.1,0,0.3,0,0.4,0c0.3,0,0.7,0,1,0.1l0.5,0.1
			l10-9.7L42,96.8l-8.5,7.9c-0.4,0.4-1.1,0.4-1.5,0L21.1,94.6c-0.2-0.2-0.3-0.5-0.3-0.8V83.1h-7.4v7l0.6,0.3
			c1.9,0.9,2.8,3.2,1.9,5.2c-0.9,1.9-3.2,2.8-5.2,1.9s-2.8-3.2-1.9-5.2c0.4-0.8,1-1.5,1.9-1.9l0.6-0.3V82c0-0.6,0.5-1.1,1-1.1l0,0
			h8.5v-4h-12l-0.3,0.5c-1.1,1.9-3.4,2.6-5.3,1.5s-2.5-3.4-1.4-5.3c1.1-1.8,3.4-2.5,5.3-1.4c0.8,0.4,1.4,1.2,1.7,2l0.3,0.7h11.8
			v-1.3c0-0.3,0.1-0.6,0.3-0.8l10.9-10.1c0.4-0.4,1.1-0.4,1.5,0l10.9,10.1c0.2,0.2,0.3,0.5,0.3,0.8v20.2c0,0.3-0.1,0.6-0.3,0.8
			l-0.8,0.7l0.7,0.8l3.2,3.2c0.4,0.4,0.5,1,0.1,1.4l-0.1,0.1L37,111.3l0.3,0.6c0.2,0.5,0.4,1.1,0.4,1.6
			C37.6,115.6,35.8,117.4,33.7,117.3L33.7,117.3z"/>
		<path class="st1" d="M64.3,116.3c-1.2,0-2.2-1-2.2-2.2s1-2.2,2.2-2.2c1.2,0,2.2,1,2.2,2.2l0,0C66.6,115.3,65.6,116.3,64.3,116.3z"
			/>
		<path class="st1" d="M64.3,115.8c-1,0-1.7-0.8-1.7-1.7c0-1,0.8-1.7,1.7-1.7c1,0,1.7,0.8,1.7,1.7l0,0
			C66.1,115,65.3,115.8,64.3,115.8z"/>
		<path class="st1" d="M33.7,115.7c-1.2,0-2.2-1-2.2-2.2s1-2.2,2.2-2.2s2.2,1,2.2,2.2l0,0C35.9,114.7,34.9,115.7,33.7,115.7z"/>
		<path class="st1" d="M33.7,115.2c-1,0-1.7-0.8-1.7-1.7c0-1,0.8-1.7,1.7-1.7c1,0,1.7,0.8,1.7,1.7l0,0
			C35.4,114.4,34.6,115.2,33.7,115.2z"/>
		<path class="st0" d="M103.7,111.7c-2.1,0-3.9-1.7-3.9-3.8c0-1.5,0.9-3,2.3-3.6l0.6-0.3v-5.7l-6.7,6.3c-0.4,0.4-1.1,0.4-1.5,0
			l-11-10c-0.2-0.2-0.3-0.5-0.3-0.8V73.6c0-0.3,0.1-0.6,0.3-0.8l10.9-10.1c0.4-0.4,1.1-0.4,1.5,0l10.9,10.1c0.2,0.2,0.3,0.5,0.3,0.8
			v6.5h2.5l0.3-0.7c0.7-2,3-3.1,5-2.3s3.1,3,2.3,5c-0.6,1.5-2,2.6-3.7,2.5c-1.4,0-2.7-0.8-3.4-2l-0.3-0.5h-2.7v11.7
			c0,0.3-0.1,0.6-0.3,0.8l-2,1.8v7.7l0.6,0.3c1.9,0.9,2.8,3.2,1.9,5.1C106.6,110.9,105.2,111.7,103.7,111.7L103.7,111.7z"/>
		<path class="st1" d="M103.7,110.1c-1.2,0-2.2-1-2.2-2.2s1-2.2,2.2-2.2s2.2,1,2.2,2.2S104.9,110.1,103.7,110.1L103.7,110.1z"/>
		<path class="st1" d="M103.7,109.6c-1,0-1.7-0.8-1.7-1.7s0.8-1.7,1.7-1.7s1.7,0.8,1.7,1.7S104.6,109.6,103.7,109.6L103.7,109.6z"/>
		<path class="st1" d="M52.3,108.3c-1.2,0-2.2-1-2.2-2.2s1-2.2,2.2-2.2s2.2,1,2.2,2.2S53.5,108.3,52.3,108.3L52.3,108.3z"/>
		<path class="st1" d="M52.3,107.8c-1,0-1.7-0.8-1.7-1.7s0.8-1.7,1.7-1.7c1,0,1.7,0.8,1.7,1.7S53.2,107.8,52.3,107.8L52.3,107.8z"/>
		<path class="st1" d="M80,108.1c-1.2,0-2.2-1-2.2-2.2s1-2.2,2.2-2.2s2.2,1,2.2,2.2C82.3,107.1,81.3,108.1,80,108.1L80,108.1z"/>
		<path class="st1" d="M80,107.6c-1,0-1.7-0.8-1.7-1.7c0-1,0.8-1.7,1.7-1.7c1,0,1.7,0.8,1.7,1.7C81.8,106.8,81,107.6,80,107.6
			L80,107.6z"/>
		<path class="st2" d="M89.4,97.1l4.9-4.9c0.2-0.2,0.3-0.5,0.3-0.8V81l10.3-5.6v18l-9.8,9.1L89.4,97.1z"/>
		<path class="st2" d="M23,93.3v-18L33.4,81v10.4c0,0.3,0.1,0.6,0.3,0.8l4.8,4.8l-5.9,5.4L23,93.3z"/>
		<polygon class="st2" points="65,80.7 72.7,73.1 73.8,74 73.8,74.5 73.8,93.3 65,101.4 		"/>
		<polygon class="st2" points="54.2,93.3 54.2,74.1 55.2,73.1 55.9,73.8 62.9,80.7 62.9,101.4 		"/>
		<path class="st1" d="M12.3,96.1c-1.2,0-2.2-1-2.2-2.2s1-2.2,2.2-2.2s2.2,1,2.2,2.2S13.5,96.1,12.3,96.1z"/>
		<path class="st1" d="M12.3,95.6c-1,0-1.7-0.8-1.7-1.7s0.8-1.7,1.7-1.7c1,0,1.7,0.8,1.7,1.7C14.1,94.8,13.3,95.6,12.3,95.6
			L12.3,95.6z"/>
		<path class="st2" d="M85.4,93.3V74l9.8-9.1l9,8.4L93,79.4c-0.3,0.2-0.6,0.5-0.6,0.9V91l-4.7,4.6L85.4,93.3z"/>
		<path class="st2" d="M35.6,91V80.4c0-0.4-0.2-0.7-0.6-0.9l-11.3-6.1l9-8.4l9.8,9.1v19.3l-2.3,2.2L35.6,91z"/>
		<path class="st1" d="M113.5,83c-1.2,0-2.2-1-2.2-2.2s1-2.2,2.2-2.2s2.2,1,2.2,2.2S114.7,83,113.5,83L113.5,83z"/>
		<path class="st1" d="M113.5,82.5c-1,0-1.7-0.7-1.8-1.7s0.7-1.7,1.7-1.8s1.7,0.7,1.8,1.7l0,0C115.2,81.7,114.4,82.5,113.5,82.5z"/>
		<polygon class="st2" points="56.8,71.6 64,64.9 71.1,71.6 64,78.7 		"/>
		<path class="st1" d="M5.1,77.8c-1.2,0-2.2-1-2.2-2.2s1-2.2,2.2-2.2s2.2,1,2.2,2.2C7.3,76.8,6.3,77.8,5.1,77.8z"/>
		<path class="st1" d="M5.1,77.3c-1,0-1.7-0.8-1.7-1.7s0.8-1.7,1.7-1.7c1,0,1.7,0.8,1.7,1.7C6.8,76.6,6.1,77.3,5.1,77.3z"/>
		<path class="st0" d="M110.5,67.7c-2.1,0-3.9-1.7-3.9-3.9l0,0c0-0.3,0-0.6,0.1-0.9l0.1-0.5l-6.7-6.7h-9.6l-10.6,9.8
			c-0.4,0.4-1.1,0.4-1.5,0l-10.9-10c-0.2-0.2-0.3-0.5-0.3-0.8V34.5c0-0.3,0.1-0.6,0.3-0.8l1.3-1.2v-16c0-0.6,0.5-1.1,1.1-1.1h2.3
			l0.3-0.6c0.8-2,3-3,5-2.2s3,3,2.2,5c-0.6,1.5-2,2.5-3.6,2.5c-1.5,0-2.9-0.9-3.6-2.3H71v12.6l7.4-6.9c0.4-0.4,1.1-0.4,1.5,0l4.3,4
			v-19l-0.6-0.3c-2-0.9-2.9-3.2-2-5.1c0.9-2,3.2-2.9,5.1-2s2.9,3.2,2,5.1c-0.4,0.8-1,1.5-1.8,1.9l-0.6,0.3v21.1l4.4,4.1
			c0.2,0.2,0.3,0.5,0.3,0.8V41h8.6V29.4l-0.4-0.3c-1.3-0.7-2.1-2-2.1-3.4c0-2.2,1.7-3.9,3.9-3.9c2.2,0,3.9,1.7,3.9,3.9
			c0,1.6-0.9,3-2.4,3.6l-0.6,0.3v12.6c0,0.6-0.5,1.1-1.1,1.1l0,0h-9.7v5.3h14.5l0.2-0.7c0.6-2,2.8-3.2,4.8-2.6
			c2,0.6,3.2,2.8,2.6,4.8s-2.8,3.2-4.8,2.6c-0.9-0.3-1.6-0.8-2.1-1.6l-0.3-0.4H91.1v3.1h9.3c0.3,0,0.6,0.1,0.8,0.3l6.8,6.8l0.6-0.3
			c1.9-1,4.2-0.2,5.2,1.7c1,1.9,0.2,4.2-1.7,5.2C111.7,67.5,111.1,67.7,110.5,67.7z"/>
		<path class="st0" d="M48.7,65.8c-0.3,0-0.5-0.1-0.7-0.3l-10.9-10c-0.2-0.2-0.3-0.5-0.3-0.8v-6.6h-9.6l-6.8,6.7l0.3,0.6
			c0.2,0.5,0.4,1.1,0.4,1.7c0,2.2-1.7,3.9-3.8,3.9c-2.2,0-3.9-1.7-3.9-3.8c0-2.2,1.7-3.9,3.8-3.9l0,0c0.3,0,0.7,0,1,0.1l0.5,0.1
			l7.3-7.2c0.2-0.2,0.5-0.3,0.8-0.3h10v-6.6h-9.5c-0.6,0-1.1-0.5-1.1-1.1v-8.5l-0.5-0.3c-1.9-1.1-2.6-3.4-1.5-5.3s3.4-2.6,5.3-1.5
			c1.9,1.1,2.6,3.4,1.5,5.3c-0.4,0.8-1.2,1.4-2,1.7L28.4,30v7.3h8.4v-2.8c0-0.3,0.1-0.6,0.3-0.8L48,23.6c0.4-0.4,1.1-0.4,1.5,0
			l3.5,3.3v-7.2l-7.9-7.8l-0.6,0.2c-0.4,0.2-0.9,0.3-1.4,0.3c-2.1,0-3.8-1.8-3.8-3.9s1.8-3.8,3.9-3.8c2.1,0,3.8,1.7,3.8,3.9
			c0,0.4-0.1,0.9-0.2,1.3l-0.2,0.6l8.2,8.2c0.2,0.2,0.3,0.5,0.3,0.8v9.6l5.2,4.8c0.2,0.2,0.3,0.5,0.3,0.8v20.2
			c0,0.3-0.1,0.6-0.3,0.8l-10.8,9.9C49.3,65.7,49,65.9,48.7,65.8z"/>
		<path class="st1" d="M110.5,66.1c-1.2,0-2.2-1-2.2-2.2c0-1.2,1-2.2,2.2-2.2s2.2,1,2.2,2.2l0,0C112.7,65.1,111.7,66.1,110.5,66.1z"
			/>
		<path class="st1" d="M110.5,65.6c-1,0-1.7-0.8-1.7-1.7c0-1,0.8-1.7,1.7-1.7s1.7,0.8,1.7,1.7l0,0C112.2,64.8,111.4,65.6,110.5,65.6
			z"/>
		<path class="st2" d="M39,54.2v-16l9.5,5.2v10.5c0,0.3,0.1,0.6,0.3,0.8l4.5,4.5l-4.6,4.3L39,54.2z"/>
		<path class="st2" d="M74.4,58.9l4.3-4.3c0.2-0.2,0.3-0.5,0.3-0.8V43.4L89,38v16.3l-9.8,9L74.4,58.9z"/>
		<path class="st1" d="M17.2,59.3c-1.2,0-2.2-1-2.2-2.2s1-2.2,2.2-2.2c1.2,0,2.2,1,2.2,2.2S18.4,59.3,17.2,59.3z"/>
		<path class="st1" d="M17.2,58.8c-1,0-1.7-0.8-1.7-1.7c0-1,0.8-1.7,1.7-1.7s1.7,0.8,1.7,1.7S18.2,58.8,17.2,58.8L17.2,58.8z"/>
		<path class="st2" d="M50.7,53.4V42.8c0-0.4-0.2-0.8-0.6-0.9l-11.7-6.4l10.4-9.6l9.8,9.1v19.3l-3.7,3.4L50.7,53.4z"/>
		<path class="st2" d="M69.4,54.2V34.9l9.8-9.1l10.2,9.5l-12,6.5c-0.3,0.2-0.6,0.5-0.6,0.9v10.6l-4,4L69.4,54.2z"/>
		<path class="st1" d="M109.6,51.1c-1.2,0-2.2-1-2.2-2.2s1-2.2,2.2-2.2s2.2,1,2.2,2.2l0,0C111.8,50.1,110.8,51.1,109.6,51.1z"/>
		<path class="st1" d="M109.6,50.6c-1,0-1.7-0.8-1.7-1.7c0-1,0.8-1.7,1.7-1.7s1.7,0.8,1.7,1.7l0,0C111.3,49.8,110.5,50.6,109.6,50.6
			z"/>
		<path class="st1" d="M27.6,28.4c-1.2,0-2.2-1-2.2-2.2s1-2.2,2.2-2.2s2.2,1,2.2,2.2S28.8,28.4,27.6,28.4L27.6,28.4z"/>
		<path class="st1" d="M27.6,27.9c-1,0-1.7-0.8-1.7-1.7c0-1,0.8-1.7,1.7-1.7c1,0,1.7,0.8,1.7,1.7S28.6,27.9,27.6,27.9z"/>
		<path class="st1" d="M101,27.9c-1.2,0-2.2-1-2.2-2.2s1-2.2,2.2-2.2s2.2,1,2.2,2.2S102.2,27.9,101,27.9L101,27.9z"/>
		<path class="st1" d="M101,27.4c-1,0-1.7-0.8-1.7-1.7c0-1,0.8-1.7,1.7-1.7c1,0,1.7,0.8,1.7,1.7l0,0C102.7,26.6,101.9,27.4,101,27.4
			z"/>
		<path class="st1" d="M76.1,18.5c-1.2,0-2.2-1-2.2-2.2s1-2.2,2.2-2.2s2.2,1,2.2,2.2l0,0C78.3,17.5,77.3,18.5,76.1,18.5L76.1,18.5z"
			/>
		<path class="st1" d="M76.1,18c-1,0-1.7-0.8-1.7-1.7c0-0.9,0.8-1.7,1.7-1.7c1,0,1.7,0.8,1.7,1.7l0,0C77.8,17.2,77.1,18,76.1,18z"/>
		<path class="st1" d="M43.1,10.7c-1.2,0-2.2-1-2.2-2.2s1-2.2,2.2-2.2s2.2,1,2.2,2.2C45.4,9.7,44.4,10.7,43.1,10.7z"/>
		<path class="st1" d="M43.1,10.2c-1,0-1.7-0.8-1.7-1.7s0.8-1.8,1.8-1.8s1.7,0.8,1.7,1.7C44.9,9.4,44.1,10.2,43.1,10.2z"/>
		<path class="st1" d="M85.2,7.1c-1.2,0-2.2-1-2.2-2.2s1-2.2,2.2-2.2s2.2,1,2.2,2.2S86.4,7.1,85.2,7.1z"/>
		<path class="st1" d="M85.2,6.6c-1,0-1.7-0.8-1.7-1.7c0-1,0.8-1.7,1.7-1.7c1,0,1.7,0.8,1.7,1.7S86.2,6.6,85.2,6.6z"/>
	</g>
</g>
</svg>
